<?xml version="1.0" encoding="utf-8"?>
<!-- Generator: Adobe Illustrator 18.0.0, SVG Export Plug-In . SVG Version: 6.00 Build 0)  -->
<!DOCTYPE svg PUBLIC "-//W3C//DTD SVG 1.1//EN" "http://www.w3.org/Graphics/SVG/1.1/DTD/svg11.dtd">
<svg version="1.1" id="Layer_1" xmlns="http://www.w3.org/2000/svg" xmlns:xlink="http://www.w3.org/1999/xlink" x="0px" y="0px"
	 viewBox="0 0 300 296" enable-background="new 0 0 300 296" xml:space="preserve">
<path fill-rule="evenodd" clip-rule="evenodd" fill="#ABABAB" d="M110.5,0c20,3.2,31.9,29.1,26.7,57.9
	c-5.2,28.8-25.6,49.6-45.6,46.5c-20-3.2-31.9-29.1-26.7-57.9C70.1,17.7,90.5-3.1,110.5,0z"/>
<path fill-rule="evenodd" clip-rule="evenodd" fill="#ABABAB" d="M28.6,98.2c19.9-3.8,39.9,16.6,44.7,45.5
	c4.8,28.9-7.4,55.3-27.3,59.1c-19.9,3.8-39.9-16.6-44.7-45.5C-3.5,128.4,8.7,102,28.6,98.2z"/>
<path fill-rule="evenodd" clip-rule="evenodd" fill="#ABABAB" d="M189.9,0.3c-19.9,3.2-31.9,29.1-26.7,58
	c5.2,28.9,25.6,49.7,45.5,46.6c19.9-3.2,31.9-29.1,26.7-58S209.9-2.8,189.9,0.3z"/>
<path fill-rule="evenodd" clip-rule="evenodd" fill="#ABABAB" d="M271.7,98.7c-19.8-3.8-39.8,16.6-44.6,45.6
	c-4.8,28.9,7.4,55.5,27.2,59.2c19.8,3.8,39.8-16.6,44.6-45.6C303.7,129,291.5,102.5,271.7,98.7z"/>
<path fill-rule="evenodd" clip-rule="evenodd" fill="#ABABAB" d="M148,115c0.5,0,1.1,0,1.6,0c41.1,1.5,54.5,59.6,70.4,83
	c18.2,18.4,59.6,38.6,34,78c-29.9,43.3-92.8,1-105,1c-12.2,0-79.8,41.2-107,1s22.4-66.2,36-82S105.7,115,148,115z"/>
</svg>
